<svg xmlns="http://www.w3.org/2000/svg" width="14.176" height="15.748" viewBox="0 0 14.176 15.748"><path d="M10.165,14.225l1.686-1.668a3.1,3.1,0,0,0,.843-1.651,4.955,4.955,0,0,1,2.213-3.284,5.3,5.3,0,0,1,1.862-.738,1.73,1.73,0,0,1,.035-.3,1.788,1.788,0,0,1,3.513.667,1.919,1.919,0,0,1-.088.3,5.073,5.073,0,0,1,2.389,3.811,4.4,4.4,0,0,1-.07,1.44,2.724,2.724,0,0,0,.176,1.721l.948,2.143a1.773,1.773,0,0,1-.228,1.809,1.73,1.73,0,0,1-1.387.685,1.935,1.935,0,0,1-.316-.035l-.861-.158a2.609,2.609,0,0,1-2.512,1.914,2.47,2.47,0,0,1-.492-.053,2.592,2.592,0,0,1-1.668-1.089,2.527,2.527,0,0,1-.439-1.686L11.1,17.228a1.758,1.758,0,0,1-1.37-1.212A1.782,1.782,0,0,1,10.165,14.225Zm9.273-7.131A.867.867,0,0,0,19.3,6.41a.955.955,0,0,0-.58-.386.867.867,0,0,0-.685.141.955.955,0,0,0-.386.58V6.8a5.229,5.229,0,0,1,1.159.141,5.94,5.94,0,0,1,.6.193A.038.038,0,0,0,19.438,7.095ZM16.944,19.248a1.7,1.7,0,0,0,1.106.72,1.743,1.743,0,0,0,1.967-1.159l-3.372-.6A1.7,1.7,0,0,0,16.944,19.248Zm-6.375-3.5a.9.9,0,0,0,.685.615l10.643,1.9a.9.9,0,0,0,.861-.334.86.86,0,0,0,.105-.913l-.948-2.143a3.746,3.746,0,0,1-.228-2.248,4.413,4.413,0,0,0,.053-1.177,4.161,4.161,0,0,0-3.126-3.636,3.907,3.907,0,0,0-1-.123,4.157,4.157,0,0,0-4.057,3.39,3.935,3.935,0,0,1-1.089,2.108L10.78,14.857A.874.874,0,0,0,10.569,15.753Z" transform="translate(-9.645 -5.133)" fill="#303158"/></svg>