<svg id="fast-forward" xmlns="http://www.w3.org/2000/svg" width="20.102" height="12.538" viewBox="0 0 20.102 12.538">
  <g id="Group_17" data-name="Group 17" transform="translate(10.659)">
    <g id="Group_16" data-name="Group 16" transform="translate(0 0)">
      <path id="Path_39" data-name="Path 39" d="M.715,98.094l6.892-4.751a1.566,1.566,0,0,1,.861-.309c.582,0,.975.5.975,1.274v9.99c0,.774-.394,1.274-.975,1.274a1.569,1.569,0,0,1-.861-.309L.711,100.512a1.381,1.381,0,0,1,0-2.417Z" transform="translate(0 -93.034)" fill="#502285"/>
    </g>
  </g>
  <g id="Group_19" data-name="Group 19">
    <g id="Group_18" data-name="Group 18" transform="translate(0 0)">
      <path id="Path_40" data-name="Path 40" d="M262.922,98.094l6.892-4.751a1.567,1.567,0,0,1,.861-.309c.582,0,.976.5.976,1.274v9.99c0,.774-.394,1.274-.976,1.274a1.572,1.572,0,0,1-.861-.309l-6.894-4.751a1.381,1.381,0,0,1,0-2.417Z" transform="translate(-262.208 -93.034)" fill="#502285"/>
    </g>
  </g>
</svg>
