<svg xmlns="http://www.w3.org/2000/svg" width="20.102" height="12.538" viewBox="0 0 20.102 12.538">
  <g id="fast-forward" transform="translate(0 -93.034)">
    <g id="Group_17" data-name="Group 17" transform="translate(0 93.034)">
      <g id="Group_16" data-name="Group 16" transform="translate(0 0)">
        <path id="Path_39" data-name="Path 39" d="M8.728,98.094,1.836,93.343a1.566,1.566,0,0,0-.861-.309c-.582,0-.975.5-.975,1.274v9.99c0,.774.394,1.274.975,1.274a1.569,1.569,0,0,0,.861-.309l6.895-4.751a1.381,1.381,0,0,0,0-2.417Z" transform="translate(0 -93.034)" fill="#502285"/>
      </g>
    </g>
    <g id="Group_19" data-name="Group 19" transform="translate(10.659 93.034)">
      <g id="Group_18" data-name="Group 18" transform="translate(0 0)">
        <path id="Path_40" data-name="Path 40" d="M270.937,98.094l-6.892-4.751a1.567,1.567,0,0,0-.861-.309c-.582,0-.976.5-.976,1.274v9.99c0,.774.394,1.274.976,1.274a1.572,1.572,0,0,0,.861-.309l6.894-4.751a1.381,1.381,0,0,0,0-2.417Z" transform="translate(-262.208 -93.034)" fill="#502285"/>
      </g>
    </g>
  </g>
</svg>
