<svg xmlns="http://www.w3.org/2000/svg" width="7.755" height="13.13" viewBox="0 0 7.755 13.13">
  <g id="download_3_" data-name="download (3)" transform="translate(0 13.13) rotate(-90)" opacity="0.3">
    <g id="Group_15" data-name="Group 15" transform="translate(0)">
      <path id="Path_38" data-name="Path 38" d="M.21,7.107l.43.433a.72.72,0,0,0,1.016,0L6.562,2.634l4.912,4.912a.72.72,0,0,0,1.016,0l.43-.43a.719.719,0,0,0,0-1.016L7.072.23A.734.734,0,0,0,6.563,0h0a.734.734,0,0,0-.508.23L.21,6.084A.725.725,0,0,0,0,6.6.718.718,0,0,0,.21,7.107Z" fill="#303158"/>
    </g>
  </g>
</svg>
