<svg xmlns="http://www.w3.org/2000/svg" width="7.755" height="13.13" viewBox="0 0 7.755 13.13">
  <g id="download_3_" data-name="download (3)" transform="translate(0 13.13) rotate(-90)">
    <g id="Group_15" data-name="Group 15" transform="translate(0 0)">
      <path id="Path_38" data-name="Path 38" d="M.21.648.64.215a.72.72,0,0,1,1.016,0L6.562,5.122,11.474.21a.72.72,0,0,1,1.016,0l.43.43a.719.719,0,0,1,0,1.016L7.072,7.525a.734.734,0,0,1-.509.23h0a.734.734,0,0,1-.508-.23L.21,1.672A.725.725,0,0,1,0,1.159.718.718,0,0,1,.21.648Z" fill="#303158"/>
    </g>
  </g>
</svg>
