<svg xmlns="http://www.w3.org/2000/svg" width="16.121" height="14.797" viewBox="0 0 16.121 14.797"><g transform="translate(-5 -6.644)"><path d="M19.509,12.027h-.326a6.493,6.493,0,0,0-1.314-2.281l.161-.282a1.612,1.612,0,0,0-.588-2.2l-.7-.4a1.612,1.612,0,0,0-2.2.588l-.165.286a6.146,6.146,0,0,0-2.628,0l-.165-.286a1.612,1.612,0,0,0-2.2-.588l-.7.4a1.612,1.612,0,0,0-.588,2.2l.161.282a6.493,6.493,0,0,0-1.314,2.281H6.612A1.612,1.612,0,0,0,5,13.639v.806a1.612,1.612,0,0,0,1.612,1.612h.326a6.493,6.493,0,0,0,1.314,2.281l-.161.282a1.612,1.612,0,0,0,.588,2.2l.7.4a1.612,1.612,0,0,0,2.2-.588l.165-.286a6.146,6.146,0,0,0,2.628,0l.165.286a1.612,1.612,0,0,0,.979.75,1.7,1.7,0,0,0,.4.056,1.612,1.612,0,0,0,.806-.218l.7-.4a1.612,1.612,0,0,0,.588-2.2l-.161-.282a6.493,6.493,0,0,0,1.326-2.281h.326a1.612,1.612,0,0,0,1.612-1.612v-.806A1.612,1.612,0,0,0,19.509,12.027Zm.806,2.418a.806.806,0,0,1-.806.806H18.88a.4.4,0,0,0-.4.294A5.59,5.59,0,0,1,17.091,18a.4.4,0,0,0-.064.484l.314.544a.817.817,0,0,1-.294,1.1l-.7.4a.817.817,0,0,1-1.1-.294l-.322-.548a.488.488,0,0,0-.447-.2,5.517,5.517,0,0,1-2.821,0,.4.4,0,0,0-.447.189l-.314.544a.817.817,0,0,1-1.1.294l-.7-.4a.817.817,0,0,1-.294-1.1l.306-.532a.4.4,0,0,0-.064-.484,5.59,5.59,0,0,1-1.411-2.45.4.4,0,0,0-.4-.294H6.612a.806.806,0,0,1-.806-.806v-.8a.806.806,0,0,1,.806-.806h.629a.4.4,0,0,0,.4-.294,5.59,5.59,0,0,1,1.386-2.45A.4.4,0,0,0,9.095,9.6L8.78,9.061a.817.817,0,0,1,.294-1.1l.7-.4a.817.817,0,0,1,1.1.294L11.2,8.4a.4.4,0,0,0,.447.189,5.517,5.517,0,0,1,2.821,0,.4.4,0,0,0,.455-.189l.314-.544a.817.817,0,0,1,1.1-.294l.7.4a.817.817,0,0,1,.294,1.1l-.314.544a.4.4,0,0,0,.073.48,5.59,5.59,0,0,1,1.411,2.45.4.4,0,0,0,.4.294h.6a.806.806,0,0,1,.806.806Z" transform="translate(0 0)" fill="#303158"/><path d="M19.627,16a3.627,3.627,0,1,0,3.627,3.627A3.627,3.627,0,0,0,19.627,16Zm0,6.448a2.821,2.821,0,1,1,2.821-2.821A2.821,2.821,0,0,1,19.627,22.448Z" transform="translate(-6.567 -5.585)" fill="#303158"/></g></svg>